<?xml version="1.0" standalone="no"?>
<!DOCTYPE svg PUBLIC "-//W3C//DTD SVG 20010904//EN"
 "http://www.w3.org/TR/2001/REC-SVG-20010904/DTD/svg10.dtd">
<svg version="1.0" xmlns="http://www.w3.org/2000/svg"
 width="150.000000pt" height="150.000000pt" viewBox="0 0 150.000000 150.000000"
 preserveAspectRatio="xMidYMid meet">
<metadata>
Created by potrace 1.14, written by Peter Selinger 2001-2017
</metadata>
<g transform="translate(0.000000,150.000000) scale(0.100000,-0.100000)"
fill="#000000" stroke="none">
<path d="M855 1480 c3 -5 8 -10 11 -10 2 0 4 5 4 10 0 6 -5 10 -11 10 -5 0 -7
-4 -4 -10z"/>
<path d="M680 1455 c0 -8 5 -15 10 -15 6 0 10 7 10 15 0 8 -4 15 -10 15 -5 0
-10 -7 -10 -15z"/>
<path d="M790 1454 c0 -8 5 -12 10 -9 6 3 10 10 10 16 0 5 -4 9 -10 9 -5 0
-10 -7 -10 -16z"/>
<path d="M960 1450 c0 -5 5 -10 11 -10 5 0 7 5 4 10 -3 6 -8 10 -11 10 -2 0
-4 -4 -4 -10z"/>
<path d="M570 1435 c0 -9 5 -15 11 -13 6 2 11 8 11 13 0 5 -5 11 -11 13 -6 2
-11 -4 -11 -13z"/>
<path d="M895 1441 c-6 -11 9 -23 19 -14 9 9 7 23 -3 23 -6 0 -12 -4 -16 -9z"/>
<path d="M730 1426 c0 -8 4 -17 9 -20 11 -7 33 18 24 27 -12 12 -33 7 -33 -7z"/>
<path d="M630 1409 c0 -24 23 -21 28 4 2 10 -3 17 -12 17 -10 0 -16 -9 -16
-21z"/>
<path d="M832 1413 c4 -21 33 -25 33 -3 0 8 -8 16 -18 18 -14 3 -18 -1 -15
-15z"/>
<path d="M1000 1395 c0 -8 5 -15 10 -15 6 0 10 7 10 15 0 8 -4 15 -10 15 -5 0
-10 -7 -10 -15z"/>
<path d="M470 1390 c0 -5 5 -10 10 -10 6 0 10 5 10 10 0 6 -4 10 -10 10 -5 0
-10 -4 -10 -10z"/>
<path d="M530 1380 c0 -11 7 -20 15 -20 8 0 15 9 15 20 0 11 -7 20 -15 20 -8
0 -15 -9 -15 -20z"/>
<path d="M684 1385 c-9 -23 4 -47 23 -43 22 4 30 38 11 49 -19 13 -28 11 -34
-6z"/>
<path d="M781 1386 c-13 -16 -5 -46 13 -46 23 0 36 22 25 42 -12 22 -22 23
-38 4z"/>
<path d="M930 1386 c0 -20 27 -28 34 -10 9 23 8 24 -14 24 -11 0 -20 -6 -20
-14z"/>
<path d="M591 1367 c-8 -10 -7 -19 4 -33 13 -18 15 -18 31 -2 14 14 15 20 4
32 -15 19 -24 20 -39 3z"/>
<path d="M871 1361 c-16 -28 14 -51 36 -28 13 13 14 19 3 31 -17 21 -27 20
-39 -3z"/>
<path d="M1027 1345 c-7 -15 1 -25 20 -25 7 0 13 6 13 14 0 19 -27 28 -33 11z"/>
<path d="M436 1342 c-8 -13 11 -35 23 -28 16 10 14 36 -3 36 -8 0 -17 -4 -20
-8z"/>
<path d="M1092 1341 c2 -7 7 -12 11 -12 12 1 9 15 -3 20 -7 2 -11 -2 -8 -8z"/>
<path d="M375 1330 c-3 -5 1 -10 9 -10 9 0 16 5 16 10 0 6 -4 10 -9 10 -6 0
-13 -4 -16 -10z"/>
<path d="M500 1315 c0 -22 4 -26 23 -23 14 2 22 10 22 23 0 13 -8 21 -22 23
-19 3 -23 -1 -23 -23z"/>
<path d="M956 1323 c-4 -9 0 -23 7 -30 12 -12 16 -12 30 2 9 8 14 22 11 30 -8
20 -40 19 -48 -2z"/>
<path d="M363 1283 c-21 -7 -15 -33 7 -33 11 0 20 3 20 8 0 15 -15 29 -27 25z"/>
<path d="M420 1274 c-11 -12 -10 -18 3 -32 15 -15 19 -15 32 -1 17 17 11 49
-10 49 -7 0 -18 -7 -25 -16z"/>
<path d="M1041 1277 c-8 -10 -7 -19 4 -33 13 -18 15 -18 31 -2 14 14 15 20 4
32 -15 19 -24 20 -39 3z"/>
<path d="M1110 1270 c0 -11 7 -20 15 -20 8 0 15 9 15 20 0 11 -7 20 -15 20 -8
0 -15 -9 -15 -20z"/>
<path d="M675 1258 c-4 -16 -4 -40 -1 -54 4 -16 3 -23 -4 -19 -5 3 -18 1 -27
-4 -17 -10 -16 -10 2 -11 11 0 27 -5 35 -10 11 -7 4 -10 -25 -8 -63 2 -80 -1
-101 -17 -17 -13 -16 -14 24 -10 25 3 56 -1 77 -9 40 -17 46 -26 13 -19 -22 4
-22 4 -3 -8 24 -14 54 -50 55 -64 0 -5 -11 2 -25 18 -14 15 -40 34 -57 43 -30
16 -94 22 -105 10 -4 -3 1 -6 11 -6 20 0 74 -27 93 -46 19 -19 16 -29 -4 -12
-24 20 -64 35 -88 33 -52 -4 -62 -7 -85 -25 l-25 -20 35 10 c43 12 43 12 35 0
-5 -8 46 -15 58 -9 1 1 21 -8 44 -20 47 -23 99 -76 124 -124 l17 -31 15 30 c9
17 23 36 31 43 21 18 176 61 176 50 0 -5 -6 -9 -12 -10 -7 0 0 -5 16 -11 20
-7 24 -13 16 -18 -10 -6 -9 -12 5 -26 20 -21 49 -84 41 -91 -3 -3 -18 -1 -33
4 -34 10 -476 9 -516 -2 -26 -7 -27 -6 -23 18 2 14 9 35 15 46 10 18 9 20 -6
14 -17 -6 -17 -5 1 15 24 27 78 45 121 40 18 -2 31 0 28 5 -3 5 5 6 18 2 21
-6 20 -4 -6 14 -58 41 -133 48 -189 19 -26 -14 -36 -28 -36 -51 0 -17 1 -17
16 -3 21 22 27 20 14 -3 -13 -25 -13 -87 0 -112 7 -13 7 -19 0 -19 -14 0 -13
-43 3 -59 10 -11 10 -13 0 -7 -18 10 -17 -66 2 -128 20 -64 46 -105 100 -155
25 -23 45 -43 45 -45 0 -2 -12 -7 -26 -10 -14 -4 -24 -12 -21 -19 17 -53 417
-54 417 -2 0 22 -30 26 -76 10 -25 -8 -57 -15 -72 -14 -20 0 -16 3 18 13 60
16 113 49 150 94 26 32 34 36 70 33 33 -2 45 3 69 27 67 67 44 160 -46 186
-19 6 -22 3 -26 -31 l-4 -38 -1 36 c-1 22 4 42 13 49 17 14 20 56 5 62 -6 2
-5 20 1 48 32 141 -49 297 -175 335 -27 8 -58 15 -67 15 -33 0 -69 23 -76 48
-4 18 -8 20 -14 10 -5 -7 -6 -21 -3 -32 10 -31 -16 -8 -31 28 l-13 31 -7 -27z
m13 -540 c2 -58 0 -68 -17 -77 -26 -15 -146 -12 -167 4 -19 13 -27 86 -13 123
8 22 13 23 101 20 l93 -3 3 -67z m310 60 c7 -7 12 -38 12 -70 0 -70 -7 -75
-106 -77 -54 -1 -74 3 -84 15 -16 19 -21 89 -9 121 8 22 14 23 92 23 51 0 88
-5 95 -12z m-227 -45 c1 -10 2 -31 3 -48 3 -50 16 -75 39 -76 12 -1 58 -2 102
-3 73 -2 83 0 110 23 l30 26 -26 -30 c-14 -16 -35 -46 -47 -65 -50 -85 -140
-139 -228 -140 -94 0 -178 44 -224 118 -16 26 -39 57 -52 70 l-23 23 27 -14
c37 -19 203 -16 223 4 8 8 15 37 16 64 1 28 4 53 6 58 8 15 43 7 44 -10z
m-314 -45 c-3 -7 -5 -2 -5 12 0 14 2 19 5 13 2 -7 2 -19 0 -25z m0 -40 c-3 -8
-6 -5 -6 6 -1 11 2 17 5 13 3 -3 4 -12 1 -19z m642 13 c34 -22 1 -101 -42
-101 -16 0 -18 4 -12 23 4 12 9 37 12 55 5 32 17 39 42 23z"/>
<path d="M588 758 c-8 -13 -18 -33 -22 -46 -4 -12 -19 -30 -32 -39 -17 -11
-22 -19 -15 -26 7 -7 16 -6 27 4 10 8 15 9 11 3 -5 -9 10 -11 43 -5 2 1 -1 6
-8 13 -8 8 -8 17 -1 31 8 14 8 18 -1 12 -8 -5 -11 0 -8 16 2 18 10 24 30 26
25 2 26 0 15 -20 -7 -12 -18 -30 -26 -39 -8 -10 -10 -18 -4 -18 6 0 18 16 28
36 9 19 23 38 31 41 16 6 19 33 3 33 -5 0 -8 -4 -5 -8 3 -5 -1 -9 -9 -9 -8 0
-12 4 -9 9 8 13 -10 10 -25 -4 -11 -10 -13 -10 -7 0 12 21 -1 13 -16 -10z
m-14 -73 c-4 -8 -11 -15 -16 -15 -6 0 -5 6 2 15 7 8 14 15 16 15 2 0 1 -7 -2
-15z"/>
<path d="M595 730 c-3 -5 -1 -10 4 -10 6 0 11 5 11 10 0 6 -2 10 -4 10 -3 0
-8 -4 -11 -10z"/>
<path d="M899 735 c-11 -25 -31 -53 -45 -61 -27 -18 -25 -27 6 -29 11 -1 16 3
13 9 -4 6 1 5 10 -2 21 -18 28 -12 56 43 13 26 29 49 35 51 13 5 18 34 6 34
-3 0 -12 -6 -19 -12 -11 -10 -13 -10 -7 0 4 6 3 12 -1 12 -5 0 -15 -6 -22 -12
-11 -10 -13 -10 -7 0 4 6 4 12 1 12 -3 0 -15 -20 -26 -45z m44 -16 c-16 -32
-29 -42 -57 -46 -18 -3 -18 -2 -4 14 9 10 19 28 22 39 4 14 15 22 30 22 22 0
23 -2 9 -29z"/>
<path d="M906 694 c-5 -14 -4 -15 9 -4 17 14 19 20 6 20 -5 0 -12 -7 -15 -16z"/>
<path d="M857 542 c6 -23 -62 -62 -112 -64 -20 -1 -31 -4 -26 -8 9 -5 27 -5
92 -1 9 1 32 12 52 25 25 17 38 21 46 13 15 -15 15 7 1 34 -14 25 -60 27 -53
1z"/>
<path d="M1172 1259 c2 -6 8 -10 13 -10 5 0 11 4 13 10 2 6 -4 11 -13 11 -9 0
-15 -5 -13 -11z"/>
<path d="M295 1250 c-3 -5 1 -10 9 -10 9 0 16 5 16 10 0 6 -4 10 -9 10 -6 0
-13 -4 -16 -10z"/>
<path d="M345 1210 c-5 -9 11 -50 20 -50 12 0 33 33 29 45 -7 17 -40 20 -49 5z"/>
<path d="M1111 1207 c-8 -10 -7 -18 2 -31 10 -14 15 -15 30 -4 11 9 16 20 11
31 -7 20 -27 22 -43 4z"/>
<path d="M284 1196 c-9 -23 7 -38 26 -26 13 8 13 11 -2 26 -16 17 -18 17 -24
0z"/>
<path d="M1183 1195 c-7 -20 2 -29 21 -22 9 4 13 13 10 22 -8 19 -23 19 -31 0z"/>
<path d="M1242 1171 c2 -7 7 -12 11 -12 12 1 9 15 -3 20 -7 2 -11 -2 -8 -8z"/>
<path d="M230 1155 c0 -8 5 -15 10 -15 6 0 10 7 10 15 0 8 -4 15 -10 15 -5 0
-10 -7 -10 -15z"/>
<path d="M287 1128 c-2 -7 0 -21 5 -31 13 -25 48 -5 41 23 -6 22 -39 27 -46 8z"/>
<path d="M1170 1124 c-11 -12 -10 -18 4 -32 16 -16 18 -16 31 1 26 36 -8 65
-35 31z"/>
<path d="M1241 1106 c-12 -14 -5 -26 16 -26 15 0 18 26 4 34 -5 3 -14 0 -20
-8z"/>
<path d="M227 1095 c-8 -18 11 -31 25 -17 11 11 3 32 -12 32 -4 0 -10 -7 -13
-15z"/>
<path d="M1296 1072 c-3 -6 -1 -14 5 -17 15 -10 25 3 12 16 -7 7 -13 7 -17 1z"/>
<path d="M176 1055 c-3 -9 0 -15 9 -15 16 0 20 16 6 24 -5 3 -11 -1 -15 -9z"/>
<path d="M247 1044 c-12 -12 -8 -42 6 -47 21 -8 39 8 35 29 -3 19 -29 30 -41
18z"/>
<path d="M1214 1036 c-9 -24 4 -48 23 -44 12 2 18 12 18 28 0 29 -32 41 -41
16z"/>
<path d="M191 996 c-12 -14 -5 -26 16 -26 15 0 18 26 4 34 -5 3 -14 0 -20 -8z"/>
<path d="M1282 993 c5 -25 28 -28 28 -4 0 12 -6 21 -16 21 -9 0 -14 -7 -12
-17z"/>
<path d="M1330 950 c0 -5 7 -10 16 -10 8 0 12 5 9 10 -3 6 -10 10 -16 10 -5 0
-9 -4 -9 -10z"/>
<path d="M145 941 c-6 -11 9 -23 19 -14 9 9 7 23 -3 23 -6 0 -12 -4 -16 -9z"/>
<path d="M214 936 c-8 -21 3 -36 27 -36 15 0 20 6 17 22 -4 27 -35 37 -44 14z"/>
<path d="M1247 943 c-12 -12 -7 -41 7 -46 19 -7 40 18 32 38 -6 15 -28 20 -39
8z"/>
<path d="M166 883 c-4 -9 -3 -20 2 -25 11 -11 36 17 27 32 -9 15 -22 12 -29
-7z"/>
<path d="M1300 886 c0 -8 4 -17 8 -20 13 -8 35 11 28 23 -10 16 -36 14 -36 -3z"/>
<path d="M207 843 c-12 -12 -7 -41 7 -46 19 -7 40 18 32 38 -6 15 -28 20 -39
8z"/>
<path d="M1254 836 c-9 -24 4 -48 23 -44 12 2 18 12 18 28 0 29 -32 41 -41 16z"/>
<path d="M1346 842 c-3 -6 -1 -14 5 -17 15 -10 25 3 12 16 -7 7 -13 7 -17 1z"/>
<path d="M130 821 c0 -6 5 -13 10 -16 6 -3 10 1 10 9 0 9 -4 16 -10 16 -5 0
-10 -4 -10 -9z"/>
<path d="M1307 776 c-7 -16 1 -26 20 -26 7 0 13 9 13 20 0 23 -25 27 -33 6z"/>
<path d="M160 766 c0 -8 4 -17 9 -20 11 -7 33 18 24 27 -12 12 -33 7 -33 -7z"/>
<path d="M210 735 c-16 -19 -5 -47 17 -43 11 2 18 12 18 27 0 29 -17 37 -35
16z"/>
<path d="M1256 743 c-3 -3 -6 -17 -6 -30 0 -20 5 -24 22 -21 29 4 35 34 10 47
-11 6 -22 7 -26 4z"/>
<path d="M1345 719 c-10 -15 3 -25 16 -12 7 7 7 13 1 17 -6 3 -14 1 -17 -5z"/>
<path d="M136 695 c4 -8 10 -12 15 -9 14 8 10 24 -6 24 -9 0 -12 -6 -9 -15z"/>
<path d="M1294 669 c-10 -17 13 -36 27 -22 12 12 4 33 -11 33 -5 0 -12 -5 -16
-11z"/>
<path d="M172 653 c4 -21 33 -25 33 -3 0 8 -8 16 -18 18 -14 3 -18 -1 -15 -15z"/>
<path d="M231 637 c-15 -19 -3 -49 18 -45 9 2 16 13 16 27 0 29 -17 37 -34 18z"/>
<path d="M1237 635 c-19 -19 -12 -45 13 -45 24 0 34 30 17 47 -12 12 -16 12
-30 -2z"/>
<path d="M1320 595 c0 -8 5 -15 10 -15 6 0 10 7 10 15 0 8 -4 15 -10 15 -5 0
-10 -7 -10 -15z"/>
<path d="M165 589 c-10 -15 3 -25 16 -12 7 7 7 13 1 17 -6 3 -14 1 -17 -5z"/>
<path d="M211 556 c-12 -14 -5 -26 16 -26 15 0 18 26 4 34 -5 3 -14 0 -20 -8z"/>
<path d="M1264 559 c-10 -17 13 -36 27 -22 12 12 4 33 -11 33 -5 0 -12 -5 -16
-11z"/>
<path d="M267 543 c-12 -12 -7 -41 7 -46 19 -7 40 18 32 38 -6 15 -28 20 -39
8z"/>
<path d="M1194 535 c-8 -21 3 -45 20 -45 20 0 29 16 21 40 -7 23 -33 27 -41 5z"/>
<path d="M1277 494 c-8 -8 1 -24 14 -24 5 0 9 7 9 15 0 15 -12 20 -23 9z"/>
<path d="M207 484 c-8 -8 1 -24 14 -24 5 0 9 7 9 15 0 15 -12 20 -23 9z"/>
<path d="M261 460 c-16 -9 -6 -30 15 -30 15 0 20 25 6 34 -4 2 -14 1 -21 -4z"/>
<path d="M320 455 c-16 -19 -5 -47 17 -43 22 4 29 43 9 51 -8 3 -20 -1 -26 -8z"/>
<path d="M1214 459 c-10 -17 13 -36 27 -22 12 12 4 33 -11 33 -5 0 -12 -5 -16
-11z"/>
<path d="M1137 447 c-8 -21 8 -39 29 -35 27 5 25 42 -2 46 -12 2 -24 -3 -27
-11z"/>
<path d="M215 410 c-3 -5 -1 -10 4 -10 6 0 11 5 11 10 0 6 -2 10 -4 10 -3 0
-8 -4 -11 -10z"/>
<path d="M1220 385 c0 -8 5 -15 10 -15 6 0 10 7 10 15 0 8 -4 15 -10 15 -5 0
-10 -7 -10 -15z"/>
<path d="M270 375 c0 -8 5 -15 10 -15 6 0 10 7 10 15 0 8 -4 15 -10 15 -5 0
-10 -7 -10 -15z"/>
<path d="M376 375 c-3 -8 2 -22 11 -30 14 -15 18 -15 31 -1 8 8 12 22 9 30 -8
20 -43 21 -51 1z"/>
<path d="M1077 384 c-10 -10 -9 -42 2 -48 18 -11 42 6 39 28 -3 21 -28 33 -41
20z"/>
<path d="M1154 375 c-9 -23 10 -40 25 -22 9 11 8 17 -4 27 -12 10 -16 9 -21
-5z"/>
<path d="M327 373 c-13 -12 -7 -33 8 -33 8 0 15 9 15 20 0 20 -11 26 -23 13z"/>
<path d="M53 240 c-49 -20 -70 -128 -38 -191 38 -73 157 -60 180 19 5 19 3 22
-19 22 -17 0 -26 -6 -26 -15 0 -34 -72 -38 -90 -5 -43 81 26 177 84 116 26
-27 52 -28 48 -1 -8 50 -80 79 -139 55z"/>
<path d="M278 237 c-13 -10 -77 -184 -82 -222 -3 -21 40 -9 50 14 9 19 20 25
48 27 31 1 39 -3 51 -26 9 -18 21 -27 32 -25 22 3 23 -3 -17 123 -33 106 -53
133 -82 109z m41 -123 c1 -15 -22 -24 -37 -15 -8 5 -8 18 0 51 l11 44 13 -34
c7 -19 13 -40 13 -46z"/>
<path d="M426 238 c-9 -5 -13 -39 -13 -118 0 -60 3 -110 6 -111 3 0 14 -2 24
-4 14 -3 17 5 17 50 l0 54 37 3 c27 2 39 8 41 21 3 14 -4 17 -37 17 -37 0 -41
2 -41 25 0 24 3 25 55 25 50 0 55 2 55 23 0 21 -4 22 -66 22 -36 0 -71 -3 -78
-7z"/>
<path d="M600 238 c-18 -7 -20 -17 -20 -118 0 -60 3 -110 8 -111 4 -1 40 -2
80 -3 69 -1 72 0 72 21 0 21 -5 23 -55 23 -54 0 -55 0 -55 29 0 27 3 30 37 33
27 2 39 8 41 21 3 14 -4 17 -37 17 -37 0 -41 2 -41 25 0 24 3 25 55 25 48 0
55 2 55 20 0 11 -3 20 -7 21 -37 5 -118 3 -133 -3z"/>
<path d="M794 232 c-32 -25 -44 -55 -44 -107 0 -25 5 -56 11 -68 26 -51 84
-71 130 -46 14 7 24 7 33 0 20 -17 26 -2 26 64 l0 61 -45 0 c-38 1 -45 -2 -45
-19 0 -10 9 -21 20 -24 41 -11 10 -54 -34 -47 -31 5 -48 29 -51 74 -2 34 2 48
21 67 28 28 44 29 72 3 23 -21 62 -27 62 -9 0 6 -13 24 -29 40 -35 34 -93 39
-127 11z"/>
<path d="M972 235 c-12 -19 -10 -224 2 -227 6 -2 40 -4 75 -3 57 0 65 3 72 23
8 21 6 22 -51 22 -60 0 -60 0 -60 30 0 27 3 30 34 30 33 0 62 20 49 33 -3 4
-24 7 -45 7 -34 0 -38 3 -38 25 0 24 3 25 54 25 38 0 56 4 59 15 4 8 1 18 -6
22 -18 11 -138 9 -145 -2z"/>
<path d="M1146 235 c-8 -9 -13 -168 -7 -225 1 -3 37 -5 81 -5 77 -1 79 0 78
22 -2 21 -7 23 -60 23 -58 0 -58 0 -58 30 0 28 2 30 39 30 26 0 41 5 45 16 9
24 9 24 -37 24 -38 0 -43 3 -45 25 -2 24 1 25 53 25 41 0 57 4 62 15 3 9 3 18
0 21 -11 11 -140 10 -151 -1z"/>
<path d="M1321 240 c-10 -6 -14 -37 -15 -109 -2 -106 2 -123 28 -127 13 -2 16
8 16 46 0 75 16 75 67 0 23 -34 38 -46 56 -46 29 0 29 -3 -25 78 -21 31 -38
60 -38 65 0 4 18 26 41 49 39 40 40 41 18 47 -18 5 -33 -4 -71 -43 l-48 -49 0
44 c0 47 -8 59 -29 45z"/>
</g>
</svg>
